<svg width="937" height="637" viewBox="0 0 937 637" fill="none" xmlns="http://www.w3.org/2000/svg">
<g clip-path="url(#clip0_0_175)">
<path d="M825.967 560.582C825.967 560.582 846.196 446.468 832.414 417.696C818.63 388.925 786.174 524.149 786.174 524.149C786.174 524.149 816.408 390.363 804.404 371.663C792.399 352.962 766.614 499.693 766.614 499.693C766.614 499.693 770.615 416.258 762.167 417.696C753.719 419.134 755.496 504.009 755.496 504.009C755.496 504.009 740.825 430.643 733.712 447.907C726.597 465.167 739.046 525.588 739.046 525.588C739.046 525.588 721.263 472.361 713.258 491.062C705.257 509.762 752.386 560.582 752.386 560.582H825.967Z" fill="#97CF50"/>
<path d="M917.253 398.633C917.253 398.633 943.043 398.565 935.509 387.383C927.977 376.197 917.253 398.633 917.253 398.633Z" fill="#FEFFD0"/>
<path d="M906.407 406.749C906.407 406.749 923.875 425.733 927.03 412.621C930.185 399.51 906.407 406.749 906.407 406.749Z" fill="#FEFFD0"/>
<path d="M887.893 423.601C887.893 423.601 905.361 442.585 908.516 429.473C911.671 416.361 887.893 423.601 887.893 423.601Z" fill="#FEFFD0"/>
<path d="M871.351 441.109C871.351 441.109 888.056 460.768 891.726 447.791C895.397 434.813 871.351 441.109 871.351 441.109Z" fill="#FEFFD0"/>
<path d="M853.98 463.228C853.98 463.228 875.266 477.796 875.394 464.311C875.522 450.826 853.98 463.228 853.98 463.228Z" fill="#FEFFD0"/>
<path d="M840.277 484.645C840.277 484.645 856.98 503.867 858.689 491.313C860.399 478.757 840.277 484.645 840.277 484.645Z" fill="#FEFFD0"/>
<path d="M827.738 506.733C827.738 506.733 849.031 520.694 847.269 508.148C845.506 495.599 827.738 506.733 827.738 506.733Z" fill="#FEFFD0"/>
<path d="M816.066 531.544C816.066 531.544 840.165 539.752 835.332 528.041C830.498 516.33 816.066 531.544 816.066 531.544Z" fill="#FEFFD0"/>
<path d="M807.159 551.034C807.159 551.034 831.257 559.241 826.426 547.53C821.591 535.819 807.159 551.034 807.159 551.034Z" fill="#FEFFD0"/>
<path d="M906.394 406.639C906.394 406.639 918.497 390.751 907.919 389.596C897.339 388.444 906.394 406.639 906.394 406.639Z" fill="#FEFFD0"/>
<path d="M887.786 423.258C887.786 423.258 899.095 402.465 886.917 402.791C874.988 403.111 887.786 423.258 887.786 423.258Z" fill="#FEFFD0"/>
<path d="M871.336 441.449C871.336 441.449 882.645 420.656 870.466 420.982C858.536 421.304 871.336 441.449 871.336 441.449Z" fill="#FEFFD0"/>
<path d="M854.12 463.286C854.12 463.286 865.428 442.491 853.249 442.817C841.32 443.139 854.12 463.286 854.12 463.286Z" fill="#FEFFD0"/>
<path d="M840.428 484.067C840.428 484.067 842.713 469.621 835.692 472.332C828.813 474.987 840.428 484.067 840.428 484.067Z" fill="#FEFFD0"/>
<path d="M827.366 506.211C827.366 506.211 824.769 483.247 816.463 491.518C808.33 499.618 827.366 506.211 827.366 506.211Z" fill="#FEFFD0"/>
<path d="M816.061 531.561C816.061 531.561 813.464 508.596 805.159 516.867C797.024 524.968 816.061 531.561 816.061 531.561Z" fill="#FEFFD0"/>
<path d="M931.977 389.402C931.977 389.402 851.887 428.825 804.671 559.2" stroke="#FEFFD0" stroke-width="2" stroke-miterlimit="10"/>
<path d="M932.534 463.604C932.534 463.604 835.093 452.584 831.128 560.042C831.128 560.042 925.129 568.423 932.534 463.604Z" fill="#97CF50"/>
<path d="M932.534 463.604C932.534 463.604 844.029 541.951 831.128 560.042" stroke="white" stroke-width="1.33333" stroke-miterlimit="10" stroke-linecap="round" stroke-linejoin="round"/>
<path d="M907.866 470.348C907.866 470.348 910.148 480.828 907.441 486.095C907.441 486.095 918.889 484.363 924.256 489.024" stroke="white" stroke-width="1.33333" stroke-miterlimit="10" stroke-linecap="round" stroke-linejoin="round"/>
<path d="M891.273 475.164C891.273 475.164 896.287 483.557 894.659 497.713C894.659 497.713 910.809 496.746 913.638 505.087" stroke="white" stroke-width="1.33333" stroke-miterlimit="10" stroke-linecap="round" stroke-linejoin="round"/>
<path d="M871.674 486.963C871.674 486.963 882.065 497.242 879.119 512.015C879.119 512.015 897.363 509.788 903.84 522.213" stroke="white" stroke-width="1.33333" stroke-miterlimit="10" stroke-linecap="round" stroke-linejoin="round"/>
<path d="M887.189 534.783C887.189 534.783 875.745 526.678 861.037 529.016C861.037 529.016 864.411 512.87 854.489 505.171" stroke="white" stroke-width="1.33333" stroke-miterlimit="10" stroke-linecap="round" stroke-linejoin="round"/>
<path d="M844.005 527.108C844.005 527.108 848.65 531.66 849.409 540.299C849.409 540.299 860.768 540.484 863.746 546.994" stroke="white" stroke-width="1.33333" stroke-miterlimit="10" stroke-linecap="round" stroke-linejoin="round"/>
<path d="M752 560.582L734.325 554.04L738.498 545.154L757.891 560.582H769.92L739.235 543.758L740.462 532.95L771.148 554.04L742.917 523.371L749.054 516.002C749.054 516.002 777.284 558.496 781.948 557.023C786.615 555.548 754.7 512.318 754.7 512.318L762.555 506.914C762.555 506.914 766.728 526.319 769.92 526.809C773.113 527.301 768.694 502.736 768.694 502.736L776.794 501.018C776.794 501.018 792.751 557.269 796.432 556.778C800.116 556.286 784.404 501.018 784.404 501.018H795.696L800.606 536.267V502.736L809.198 506.422C809.198 506.422 803.797 531.724 807.725 532.705C811.654 533.688 816.808 509.123 816.808 509.123L827.364 518.704L814.844 549.162L828.836 530.8C828.836 530.8 833.746 538.109 835.465 547.936L819.509 554.04L840.131 549.407V560.582H752Z" fill="#FEFFD0"/>
<g opacity="0.100006">
<path d="M45.933 561.769H178.244C178.244 561.769 157.317 568.57 130.378 568.57C103.44 568.57 45.933 561.769 45.933 561.769Z" fill="url(#paint0_linear_0_175)"/>
</g>
<path d="M92.6351 539.109C92.6351 539.109 86.0595 403.438 54.4988 404.231C22.9397 405.025 74.8819 451.836 77.5118 535.934C77.5118 535.934 61.0744 432 32.8015 432C32.8015 432 17.6798 432 28.1979 453.423C38.7192 474.845 61.9552 494.679 58.5552 544.663C58.5552 544.663 54.4988 503.407 28.8558 482.779C28.8558 482.779 20.3082 470.878 13.0763 482.779C5.84437 494.679 34.1173 506.58 42.6633 537.523V563.704H92.6351V539.109Z" fill="#97CF50"/>
<path d="M50.5602 563.705C50.5602 563.705 16.221 552.993 24.5441 537.35C32.8687 521.705 64.0878 554.354 64.0878 554.354C64.0878 554.354 50.5602 530.547 57.8428 521.705C65.1268 512.863 87.501 542.705 87.501 542.705C87.501 542.705 77.6138 507.422 87.501 501.981C97.3865 496.537 104.671 539.39 104.671 539.39C104.671 539.39 119.759 480.213 135.366 484.294C150.977 488.375 135.366 523.898 135.366 523.898C135.366 523.898 144.001 469.33 159.714 469.33C175.43 469.33 156.7 531.908 156.7 531.908C156.7 531.908 172.309 479.533 187.917 480.894C203.526 482.253 181.674 542.111 181.674 542.111C181.674 542.111 183.235 517.622 199.364 521.025C215.491 524.427 193.12 563.705 193.12 563.705H50.5602Z" fill="#FEFFD0"/>
<path d="M64.2511 434.747C64.2511 434.747 81.2848 418.145 75.7308 392.866C75.7308 392.866 60.7024 414.895 64.2511 434.747Z" fill="#FEFFD0"/>
<path d="M47.0406 412.074C47.0406 412.074 44.7618 385.291 13.8684 382.103C13.8684 382.103 27.9748 406.501 47.0406 412.074Z" fill="#FEFFD0"/>
<path d="M56.337 423.562C56.337 423.562 66.4344 402.483 52.336 380.697C52.336 380.697 46.026 406.186 56.337 423.562Z" fill="#FEFFD0"/>
<path d="M74.4184 452.575C74.4184 452.575 95.3598 433.254 92.7061 408.123C92.7061 408.123 73.226 432.729 74.4184 452.575Z" fill="#FEFFD0"/>
<path d="M85.8044 483.842C85.8044 483.842 116.622 467.833 122.813 441.338C122.813 441.338 91.7189 463.089 85.8044 483.842Z" fill="#FEFFD0"/>
<path d="M50.0475 415.727C50.0475 415.727 32.1678 396.245 5.93018 400.441C5.93018 400.441 29.4176 418.148 50.0475 415.727Z" fill="#FEFFD0"/>
<path d="M58.2352 426.766C58.2352 426.766 37.6196 409.166 8.96082 418.54C8.96082 418.54 35.6586 433.193 58.2352 426.766Z" fill="#FEFFD0"/>
<path d="M66.7066 439.099C66.7066 439.099 46.0895 421.501 17.4307 430.873C17.4307 430.873 44.1285 445.526 66.7066 439.099Z" fill="#FEFFD0"/>
<path d="M75.8407 455.753C75.8407 455.753 51.1814 433.481 21.7288 439.684C21.7288 439.684 52.5019 459.589 75.8407 455.753Z" fill="#FEFFD0"/>
<path d="M80.9827 468.213C80.9827 468.213 56.8437 446.757 26.6399 454.253C26.6399 454.253 57.0936 473.061 80.9827 468.213Z" fill="#FEFFD0"/>
<path d="M85.4938 482.665C85.4938 482.665 62.4539 462.027 34.2585 468.523C34.2585 468.523 63.1734 486.788 85.4938 482.665Z" fill="#FEFFD0"/>
<path d="M89.3456 498.001C89.3456 498.001 68.05 478.32 44.3838 481.839C44.3838 481.839 70.5328 499.902 89.3456 498.001Z" fill="#FEFFD0"/>
<path d="M91.6142 511.888C91.6142 511.888 72.0566 490.845 48.2687 492.639C48.2687 492.639 72.7777 512.424 91.6142 511.888Z" fill="#FEFFD0"/>
<path d="M94.4119 526.781C94.4119 526.781 76.3219 507.073 55.2603 507.878C55.2603 507.878 77.7056 526.618 94.4119 526.781Z" fill="#FEFFD0"/>
<path d="M96.0573 540.92C96.0573 540.92 76.8682 522.283 55.8873 524.295C55.8873 524.295 79.3684 541.716 96.0573 540.92Z" fill="#FEFFD0"/>
<path d="M43.9604 408.268C53.5803 418.08 61.8385 429.16 68.9423 440.931C70.7704 443.846 72.3819 446.889 74.025 449.911L76.3181 454.538L77.4552 456.856L78.491 459.222C81.3929 465.474 83.6101 472.023 85.6486 478.611C87.4372 485.244 89.1499 491.898 90.5226 498.627C91.9348 505.342 93.2221 512.088 94.1962 518.879C96.2331 532.448 97.658 546.104 98.085 559.816L97.4919 559.843C96.9479 553.032 96.2505 546.225 95.3617 539.449C94.5299 532.665 93.5273 525.904 92.3681 519.174C90.1003 505.705 87.2348 492.338 83.501 479.22C79.7435 466.17 74.2053 453.636 67.3451 441.874C63.9529 435.969 60.2713 430.22 56.2719 424.694C52.3278 419.134 48.0784 413.768 43.5366 408.685L43.9604 408.268Z" fill="#FEFFD0"/>
<path d="M820.432 557.773C820.432 561.911 817.046 565.295 812.912 565.295H105.935C101.798 565.295 98.4135 561.911 98.4135 557.773V119.408C98.4135 115.267 101.798 111.881 105.935 111.881H812.912C817.046 111.881 820.432 115.267 820.432 119.408V557.773Z" fill="#A69CBA"/>
<path d="M13.8022 559.123V595.868C13.8022 600.976 17.9804 605.156 23.0868 605.156H895.76C900.865 605.156 905.043 600.976 905.043 595.868V559.123H13.8022Z" fill="#8C7BAA"/>
<g opacity="0.399994">
<path d="M317.936 559.123V576.821C317.936 578.443 319.261 579.77 320.884 579.77H597.962C599.582 579.77 600.91 578.443 600.91 576.821V559.123H317.936Z" fill="#A9BEFF"/>
</g>
<path d="M798.67 542.303H120V131.212H798.67V542.303Z" fill="#EDEDED"/>
<path d="M798.757 158.29H120.088V131.212H798.757V158.29Z" fill="#D4E6F9"/>
<path d="M142.601 143.865C142.601 146.982 140.073 149.508 136.96 149.508C133.844 149.508 131.319 146.982 131.319 143.865C131.319 140.748 133.844 138.221 136.96 138.221C140.073 138.221 142.601 140.748 142.601 143.865Z" fill="#F26B7F"/>
<path d="M161.403 143.865C161.403 146.982 158.876 149.508 155.761 149.508C152.645 149.508 150.12 146.982 150.12 143.865C150.12 140.748 152.645 138.221 155.761 138.221C158.876 138.221 161.403 140.748 161.403 143.865Z" fill="#F9CB64"/>
<path d="M180.205 143.865C180.205 146.982 177.679 149.508 174.564 149.508C171.45 149.508 168.924 146.982 168.924 143.865C168.924 140.748 171.45 138.221 174.564 138.221C177.679 138.221 180.205 140.748 180.205 143.865Z" fill="#88E2B5"/>
<path d="M229.645 220.649C229.645 221.633 228.081 222.43 226.151 222.43C224.22 222.43 222.655 221.633 222.655 220.649C222.655 219.664 224.22 218.867 226.151 218.867C228.081 218.867 229.645 219.664 229.645 220.649Z" fill="white"/>
<path d="M202.407 227.143C202.407 228.127 200.842 228.926 198.911 228.926C196.98 228.926 195.416 228.127 195.416 227.143C195.416 226.159 196.98 225.361 198.911 225.361C200.842 225.361 202.407 226.159 202.407 227.143Z" fill="white"/>
<path d="M612.737 155.207C573.455 174.44 507.897 184.469 444.544 184.019C360.542 183.423 319.996 202.434 242.288 234.267C192.269 254.762 147.603 259.315 119.019 260.431V252.78C144.301 251.726 163.874 244.463 163.874 235.647C163.874 226.831 144.301 219.567 119.019 218.507V199.655C239.855 219.609 348.731 166.636 441.05 162.041C465.91 160.801 485.687 158.271 501.332 155.207H612.737Z" fill="#FEFFD0"/>
<path d="M556.906 485.214C657.639 484.061 731.223 494.343 770.639 501.749H798.641V484.418C761.279 485.458 730.477 478.373 726.254 466.801C721.378 453.442 753.762 439.16 798.641 434.839V401.675C745.956 438.138 643.048 459.631 500.273 462.34C385.539 464.517 302.612 485.635 255.419 501.749H353.397C397.054 494.721 467.405 486.239 556.906 485.214Z" fill="#FEFFD0"/>
<path d="M570.287 191.164C513.24 199.779 442.559 231.855 381.203 229.478C319.833 227.108 250.104 248.884 208.471 273.835C183.597 288.737 145.592 295.169 119.019 297.927V314.367C143.336 308.892 222.987 290.178 252.673 273.364C287.918 253.403 346.923 235.979 398.86 237.885C450.783 239.784 541.268 208.145 589.548 201.256C629.591 195.545 747.56 198.969 798.64 236.27V212.913C733.546 179.673 613.892 184.58 570.287 191.164ZM551.312 392.055C446.95 392.693 467.265 393.139 353.964 410.428C203.875 433.332 124.592 415.536 119.019 408.973V431.782C120.895 432.428 122.838 432.981 124.891 433.446C124.891 433.446 190.556 452.956 324.509 431.463C458.449 409.971 434.377 409.285 557.687 408.495C636.958 407.989 741.022 377.528 798.64 334.896V313.265C748.253 356.708 627.865 391.59 551.312 392.055Z" fill="#FEFFD0"/>
<path d="M742.193 276.872C752.939 324.584 639.033 382.117 487.776 405.375C336.52 428.632 205.191 408.809 194.444 361.096C183.698 313.385 297.604 255.852 448.861 232.594C600.117 209.336 731.446 229.159 742.193 276.872Z" fill="#97CF50"/>
<path d="M752.446 272.971C765.998 320.32 655.352 382.493 505.312 411.838C355.271 441.183 222.651 426.588 209.098 379.238C195.546 331.89 306.19 269.717 456.232 240.371C606.274 211.027 738.893 225.622 752.446 272.971Z" stroke="#FEFFD0" stroke-width="2.66667" stroke-miterlimit="10"/>
<path d="M476.428 236.19C476.428 236.19 460.219 261.62 417.874 263.834C375.527 266.047 371.051 271.344 360.02 280.494C348.988 289.644 344.649 295.056 313.604 293.495C282.558 291.935 288.723 308.905 264.396 317.814C240.07 326.724 250.574 336.34 246.151 344.293C241.728 352.246 230.67 350.801 235.093 359.951C239.516 369.101 251.173 359.766 253.892 378.375C256.61 396.984 278.771 386.918 292.04 389.326C305.31 391.734 309.733 404.219 323.555 404.718C337.378 405.218 350.647 394.141 377.186 398.957C403.725 403.773 418.21 416.427 443.532 409.552C468.855 402.675 485.552 393.28 504.35 394.915C523.15 396.55 536.418 400.402 549.688 387.399C562.957 374.397 585.073 365.73 604.423 366.212C623.775 366.693 621.564 359.47 640.361 347.912C659.16 336.354 668.007 344.059 680.723 338.762C693.44 333.465 691.78 312.389 711.685 301.498C731.589 290.606 728.824 277.963 717.214 271.042C705.602 264.12 685.698 262.676 684.594 252.563C683.486 242.451 662.478 238.116 647.55 243.414C632.622 248.71 610.794 242.451 600.698 236.19C590.602 229.93 569.592 231.856 545.264 238.116C520.938 244.377 484.445 239.561 476.428 236.19Z" fill="#FEFFD0"/>
<path d="M575.539 281.884C564.296 283.592 549.855 268.411 530.854 273.861C511.852 279.31 499.523 277.074 480.64 272.562C461.757 268.051 443.505 269.981 435.35 281.884C427.195 293.786 421.37 300.221 397.682 296.038C373.993 291.856 356.907 295.154 343.315 311.358C329.724 327.564 293.997 326.599 291.278 337.697C288.56 348.797 305.648 348.475 346.81 347.831C387.974 347.188 367.003 354.878 412.439 359.557C457.874 364.238 445.577 350.417 473.796 349.439C502.013 348.462 514.959 355.873 544.861 350.404C574.763 344.936 570.491 326.254 587.577 317.741C604.664 309.228 636.896 314.053 650.876 296.038C664.855 278.023 641.555 286.066 621.362 280.275C601.169 274.484 583.177 280.723 575.539 281.884Z" fill="#97CF50"/>
<path d="M299.993 382.093C299.993 383.051 298.47 383.826 296.594 383.826C294.717 383.826 293.196 383.051 293.196 382.093C293.196 381.136 294.717 380.361 296.594 380.361C298.47 380.361 299.993 381.136 299.993 382.093Z" fill="#F9A830"/>
<path d="M637.525 357.962C637.525 359.855 634.514 361.39 630.802 361.39C627.087 361.39 624.078 359.855 624.078 357.962C624.078 356.069 627.087 354.533 630.802 354.533C634.514 354.533 637.525 356.069 637.525 357.962Z" fill="#F9A830"/>
<path d="M222.439 455.141C222.439 457.033 219.428 458.569 215.715 458.569C212.003 458.569 208.992 457.033 208.992 455.141C208.992 453.247 212.003 451.712 215.715 451.712C219.428 451.712 222.439 453.247 222.439 455.141Z" fill="#F9A830"/>
<path d="M648.52 245.242C648.52 247.135 645.509 248.67 641.795 248.67C638.082 248.67 635.071 247.135 635.071 245.242C635.071 243.348 638.082 241.813 641.795 241.813C645.509 241.813 648.52 243.348 648.52 245.242Z" fill="#F9A830"/>
<path d="M273.414 280.838C273.414 282.731 270.404 284.266 266.692 284.266C262.978 284.266 259.967 282.731 259.967 280.838C259.967 278.944 262.978 277.41 266.692 277.41C270.404 277.41 273.414 278.944 273.414 280.838Z" fill="white"/>
<path d="M238.943 399.85C238.943 399.85 242.989 399.457 245.686 397.098C248.384 394.741 248.577 393.202 248.577 393.202C248.577 393.202 250.853 397.983 255.687 399.162C260.522 400.34 261.872 400.34 261.872 400.34C261.872 400.34 254.55 402.109 252.045 404.565C249.54 407.022 248.769 409.084 248.769 409.084C248.769 409.084 245.686 403.681 242.603 402.601C239.521 401.519 232.521 400.537 232.521 400.537L238.943 399.85Z" fill="#F9A830"/>
<path d="M672.387 351.639C672.387 351.639 677.262 351.166 680.51 348.326C683.759 345.487 683.991 343.633 683.991 343.633C683.991 343.633 686.731 349.391 692.554 350.812C698.379 352.231 700.003 352.231 700.003 352.231C700.003 352.231 691.184 354.361 688.168 357.319C685.152 360.278 684.224 362.762 684.224 362.762C684.224 362.762 680.51 356.254 676.797 354.953C673.085 353.65 664.653 352.467 664.653 352.467L672.387 351.639Z" fill="white"/>
<path d="M603.986 217.77C603.986 217.77 607.671 217.412 610.128 215.265C612.585 213.118 612.76 211.716 612.76 211.716C612.76 211.716 614.831 216.07 619.235 217.144C623.639 218.218 627.336 218.33 627.336 218.33C627.336 218.33 618.2 219.828 615.917 222.065C613.638 224.302 612.935 226.181 612.935 226.181C612.935 226.181 610.128 221.26 607.32 220.276C604.513 219.291 598.137 218.397 598.137 218.397L603.986 217.77Z" fill="white"/>
<path d="M205.643 343.516C205.643 343.516 209.886 343.105 212.713 340.633C215.54 338.161 215.743 336.547 215.743 336.547C215.743 336.547 218.127 341.56 223.197 342.795C228.265 344.031 232.52 344.161 232.52 344.161C232.52 344.161 222.003 345.885 219.377 348.46C216.753 351.035 215.944 353.197 215.944 353.197C215.944 353.197 212.713 347.533 209.481 346.4C206.25 345.267 198.911 344.238 198.911 344.238L205.643 343.516Z" fill="white"/>
<path d="M145.597 345.253C145.597 345.253 147.255 345.092 148.362 344.125C149.467 343.159 149.546 342.528 149.546 342.528C149.546 342.528 150.478 344.488 152.46 344.972C154.442 345.455 156.105 345.505 156.105 345.505C156.105 345.505 151.994 346.18 150.967 347.186C149.941 348.192 149.625 349.039 149.625 349.039C149.625 349.039 148.362 346.824 147.098 346.381C145.834 345.938 142.964 345.535 142.964 345.535L145.597 345.253Z" fill="white"/>
<path d="M145.597 375.728C145.597 375.728 147.255 375.567 148.362 374.6C149.467 373.634 149.546 373.002 149.546 373.002C149.546 373.002 150.478 374.963 152.46 375.446C154.442 375.929 156.105 375.979 156.105 375.979C156.105 375.979 151.994 376.654 150.967 377.661C149.941 378.667 149.625 379.513 149.625 379.513C149.625 379.513 148.362 377.298 147.098 376.855C145.834 376.412 142.964 376.009 142.964 376.009L145.597 375.728Z" fill="#F9A830"/>
<path d="M296.467 259.775C296.467 259.775 301.099 259.325 304.189 256.625C307.277 253.925 307.497 252.163 307.497 252.163C307.497 252.163 310.103 257.637 315.639 258.987C321.175 260.338 325.825 260.478 325.825 260.478C325.825 260.478 314.337 262.362 311.469 265.175C308.601 267.987 307.717 270.349 307.717 270.349C307.717 270.349 304.189 264.162 300.658 262.925C297.129 261.687 289.112 260.562 289.112 260.562L296.467 259.775Z" fill="#F9A830"/>
<path d="M671.326 279.356C671.326 279.356 675.959 278.906 679.049 276.207C682.136 273.507 682.357 271.744 682.357 271.744C682.357 271.744 684.962 277.22 690.498 278.569C696.035 279.919 700.684 280.06 700.684 280.06C700.684 280.06 689.196 281.944 686.328 284.756C683.461 287.569 682.577 289.931 682.577 289.931C682.577 289.931 679.049 283.744 675.518 282.506C671.988 281.269 663.972 280.144 663.972 280.144L671.326 279.356Z" fill="white"/>
<path d="M722.16 239.905C722.16 239.905 723.934 239.732 725.116 238.699C726.299 237.666 726.382 236.991 726.382 236.991C726.382 236.991 727.38 239.087 729.499 239.604C731.619 240.121 733.398 240.175 733.398 240.175C733.398 240.175 729 240.895 727.903 241.972C726.805 243.049 726.468 243.953 726.468 243.953C726.468 243.953 725.116 241.584 723.765 241.111C722.414 240.637 719.345 240.206 719.345 240.206L722.16 239.905Z" fill="white"/>
<path d="M763.577 263.345C763.577 263.345 765.351 263.173 766.532 262.139C767.715 261.106 767.799 260.431 767.799 260.431C767.799 260.431 768.797 262.527 770.916 263.044C773.035 263.561 774.816 263.614 774.816 263.614C774.816 263.614 770.417 264.336 769.32 265.412C768.222 266.489 767.884 267.393 767.884 267.393C767.884 267.393 766.532 265.025 765.181 264.551C763.83 264.077 760.762 263.647 760.762 263.647L763.577 263.345Z" fill="#F9A830"/>
<path d="M756.55 305.165C756.55 305.165 758.324 304.993 759.507 303.96C760.689 302.927 760.772 302.251 760.772 302.251C760.772 302.251 761.77 304.347 763.889 304.864C766.009 305.381 767.788 305.435 767.788 305.435C767.788 305.435 763.39 306.156 762.293 307.232C761.195 308.309 760.858 309.213 760.858 309.213C760.858 309.213 759.507 306.845 758.155 306.371C756.804 305.898 753.735 305.467 753.735 305.467L756.55 305.165Z" fill="white"/>
<path d="M255.141 452.446C255.141 452.446 259.133 452.057 261.796 449.731C264.457 447.405 264.647 445.885 264.647 445.885C264.647 445.885 266.892 450.604 271.664 451.767C276.435 452.93 280.44 453.052 280.44 453.052C280.44 453.052 270.541 454.675 268.069 457.099C265.598 459.523 264.836 461.558 264.836 461.558C264.836 461.558 261.796 456.226 258.754 455.16C255.71 454.094 248.803 453.124 248.803 453.124L255.141 452.446Z" fill="white"/>
<path d="M590.288 247.537C590.288 248.254 589.148 248.835 587.743 248.835C586.338 248.835 585.197 248.254 585.197 247.537C585.197 246.82 586.338 246.239 587.743 246.239C589.148 246.239 590.288 246.82 590.288 247.537Z" fill="#F9A830"/>
<path d="M354.602 249.239C354.602 251.047 351.727 252.513 348.182 252.513C344.636 252.513 341.763 251.047 341.763 249.239C341.763 247.431 344.636 245.965 348.182 245.965C351.727 245.965 354.602 247.431 354.602 249.239Z" fill="#F9A830"/>
<path d="M620.969 271.744C620.969 274.806 616.1 277.289 610.095 277.289C604.088 277.289 599.221 274.806 599.221 271.744C599.221 268.682 604.088 266.2 610.095 266.2C616.1 266.2 620.969 268.682 620.969 271.744Z" fill="#FEFFD0"/>
<path d="M220.659 375.148C220.659 378.21 215.79 380.692 209.785 380.692C203.78 380.692 198.911 378.21 198.911 375.148C198.911 372.086 203.78 369.603 209.785 369.603C215.79 369.603 220.659 372.086 220.659 375.148Z" fill="#FEFFD0"/>
<path d="M239.3 310.557C239.3 316.244 230.258 320.854 219.106 320.854C207.953 320.854 198.911 316.244 198.911 310.557C198.911 304.87 207.953 300.26 219.106 300.26C230.258 300.26 239.3 304.87 239.3 310.557Z" fill="#FEFFD0"/>
<path d="M739.353 403.498C739.353 407.911 732.338 411.488 723.685 411.488C715.03 411.488 708.015 407.911 708.015 403.498C708.015 399.086 715.03 395.509 723.685 395.509C732.338 395.509 739.353 399.086 739.353 403.498Z" fill="#FEFFD0"/>
<path d="M235.911 223.043C235.911 228.73 226.869 233.34 215.717 233.34C204.564 233.34 195.522 228.73 195.522 223.043C195.522 217.355 204.564 212.746 215.717 212.746C226.869 212.746 235.911 217.355 235.911 223.043Z" fill="#9FA7C0"/>
<path d="M661.99 469.387C661.99 475.074 652.95 479.684 641.796 479.684C630.643 479.684 621.602 475.074 621.602 469.387C621.602 463.7 630.643 459.09 641.796 459.09C652.95 459.09 661.99 463.7 661.99 469.387Z" fill="#9FA7C0"/>
<path d="M702.524 328.478C702.524 334.165 693.482 338.775 682.329 338.775C671.177 338.775 662.134 334.165 662.134 328.478C662.134 322.791 671.177 318.181 682.329 318.181C693.482 318.181 702.524 322.791 702.524 328.478Z" fill="#FEFFD0"/>
<path d="M307.468 351.328C307.468 354.39 302.6 356.873 296.594 356.873C290.589 356.873 285.721 354.39 285.721 351.328C285.721 348.266 290.589 345.783 296.594 345.783C302.6 345.783 307.468 348.266 307.468 351.328Z" fill="#FEFFD0"/>
<path d="M412.942 155.207C384.343 159.844 353.842 166.886 323.979 173.782C287.81 182.134 253.652 190.021 226.413 192.717C210.904 194.256 195.952 194.838 182.238 194.838C154.061 194.838 131.076 192.398 119.019 190.797V189.363C136.282 191.691 178.405 196.065 225.896 191.359C252.823 188.69 286.845 180.838 322.851 172.521C350.077 166.234 377.819 159.83 404.243 155.207H412.942Z" fill="#FEFFD0"/>
<path d="M798.641 388.562V390.772C778.252 403.526 750.686 414.677 716.338 424.04C660.854 439.164 589.086 449.054 503.046 453.441C406.581 458.362 332.216 472.695 286.818 483.861C258.668 490.777 237.885 497.362 225.203 501.749H220.419C232.747 497.376 254.78 490.202 285.554 482.634C331.156 471.413 405.86 457.004 502.774 452.062C588.461 447.695 659.889 437.853 715.047 422.821C750.265 413.214 778.279 401.731 798.641 388.562Z" fill="#FEFFD0"/>
<path d="M610.238 465.694C610.235 465.697 610.23 465.698 610.228 465.701C610.227 465.702 610.223 465.706 610.223 465.706L610.238 465.694Z" fill="#F9A830"/>
<path d="M322.443 380.369C321.737 380.416 321.492 380.487 321.492 380.487C321.492 380.487 321.823 380.44 322.443 380.369Z" fill="#F9A830"/>
<path d="M467.507 440.183C467.507 440.183 498.117 437.234 514.915 431.737L510.136 431.297L458.345 438.92L467.507 440.183Z" fill="#FEFFD0"/>
<path d="M532.625 298.074C532.625 298.074 535.374 278.362 550.044 269.456C550.044 269.456 525.53 277.918 532.625 298.074Z" fill="#F9A830"/>
<path d="M798.757 542.303H120.088V501.333H798.757V542.303Z" fill="#D4E6F9"/>
<path d="M777.186 520.982C777.186 522.481 775.97 523.699 774.469 523.699H188.687C187.187 523.699 185.971 522.481 185.971 520.982C185.971 519.481 187.187 518.264 188.687 518.264H774.469C775.97 518.264 777.186 519.481 777.186 520.982Z" fill="#8AC5FF"/>
<path d="M170.398 521.117C170.398 529.063 163.96 535.509 156.015 535.509C148.071 535.509 141.633 529.063 141.633 521.117C141.633 513.17 148.071 506.725 156.015 506.725C163.96 506.725 170.398 513.17 170.398 521.117Z" fill="#8AC5FF"/>
<path d="M152.112 512.513V529.447L164.587 521.238L152.112 512.513Z" fill="white"/>
<path d="M253.644 520.982C253.644 525.657 249.858 529.448 245.185 529.448C240.512 529.448 236.724 525.657 236.724 520.982C236.724 516.303 240.512 512.512 245.185 512.512C249.858 512.512 253.644 516.303 253.644 520.982Z" fill="white"/>
</g>
<path d="M618.4 635.979C618.4 635.979 615.399 637.74 611.659 635.979C611.659 635.979 609.414 637.506 604.684 635.004C604.684 635.004 601.413 636.499 598.176 633.01C594.94 629.502 591.705 627.253 580.217 620.507C570.559 614.854 556.305 605.626 545.322 601.078C543.258 600.206 541.297 599.518 539.519 599.048C539.519 599.048 412.259 567.586 328.398 539.096C261.037 516.243 244.469 493.155 242.271 477.551C241.735 473.725 242.053 470.351 242.707 467.534C242.707 467.534 256.156 443.002 311.426 455.218C370.537 468.271 427.402 513.625 461.006 534.113C492.935 553.577 519.782 564.466 540.341 564.65C541.431 564.65 542.487 564.617 543.526 564.568C564.506 563.577 569.972 565.088 580.972 575.574C591.939 586.062 595.428 599.536 608.406 608.025C621.403 616.531 625.376 629.502 626.382 633.01C627.388 636.499 623.632 638.244 618.4 635.979Z" fill="url(#paint1_linear_0_175)"/>
<path d="M534.354 391.658C541.481 401.674 548.508 412.347 553.874 422.247L461.644 491.863V492.82L461.006 492.348L460.369 492.82V491.863L368.14 422.247C372.851 413.521 378.872 404.192 385.127 395.232C401.761 371.44 420.04 350.332 420.04 350.332C420.04 350.332 406.709 329.592 391.935 298.602C386.904 288.031 381.688 276.285 376.793 263.751C357.491 214.472 359.488 200.494 359.488 200.494C365.423 192.122 382.796 185.108 399.431 178.363C414.49 172.255 428.945 166.365 433.689 159.873C437.932 154.084 440.011 148.043 440.984 143.026C442.327 136.213 441.671 131.248 441.671 131.248H480.342C480.342 131.248 479.536 137.322 481.515 145.258C482.655 149.771 484.701 154.906 488.324 159.873C495.164 169.235 522.129 177.339 542.083 186.651C551.274 190.931 558.971 195.462 562.525 200.494C562.525 200.494 564.522 214.472 545.22 263.751C540.073 276.906 534.589 289.206 529.306 300.179C514.835 330.297 501.974 350.332 501.974 350.332C501.974 350.332 518.441 369.36 534.338 391.658H534.354Z" fill="white"/>
<path d="M542.084 186.652C528.786 196.132 506.133 204.991 471.252 197.239C440.616 190.428 416.334 183.614 399.43 178.364C414.49 172.256 428.945 166.366 433.69 159.872C437.933 154.085 440.012 148.044 440.984 143.026C451.08 142.372 462.332 142.657 474.74 144.301C477.072 144.603 479.318 144.922 481.516 145.258C482.656 149.772 484.702 154.907 488.324 159.872C495.165 169.236 522.13 177.34 542.084 186.652Z" fill="#EDEDED"/>
<path d="M534.338 391.658C518.691 395.384 493.857 399.747 460.403 400.821C423.428 401.995 398.811 398.319 385.127 395.233C401.762 371.44 420.039 350.332 420.039 350.332C420.039 350.332 406.709 329.593 391.936 298.602C403.019 307.796 424.467 319.794 459.631 317.68C493.907 315.632 516.746 306.756 529.307 300.179C514.835 330.297 501.974 350.332 501.974 350.332C501.974 350.332 518.44 369.36 534.338 391.658Z" fill="#EDEDED"/>
<path d="M443.03 307.712V340.666C443.03 340.666 329.236 413.588 264.021 374.292C264.021 374.292 260.031 362.313 283.323 334.342C306.615 306.37 334.552 241.787 334.552 241.787C342.551 212.475 359.487 200.495 359.487 200.495L373.775 234.991L380.851 252.057L385.145 262.426L381.924 266.873L331.382 336.522L329.974 338.468C334.351 337.244 338.777 336.271 343.205 335.667C382.478 330.347 433.053 316.37 443.03 307.712Z" fill="white"/>
<path d="M469.906 273.537C469.053 270.979 467.969 269.301 467.048 271.273C466.792 266.183 466.289 262.5 465.663 261.426C463.898 258.397 463.086 258.437 461.639 261.675C461.49 259.616 460.777 258.204 460.007 258.054C458.717 257.806 456.43 264.173 455.181 269.416C454.284 273.187 453.261 283.311 452.755 288.717L450.231 293.648C450.479 285.964 447.78 277.727 446.197 278.406C444.45 279.156 445.2 283.401 445.448 292.514C445.575 297.129 445.573 300.55 445.541 302.813L443.037 307.706C443.037 307.706 440.374 331.013 443.037 340.668C443.037 340.668 449.368 337.78 455.791 329.174V329.18C455.791 329.18 464.666 318.111 468.658 304.128C472.651 290.143 471.153 277.282 469.906 273.537Z" fill="#FF9E81"/>
<path d="M659.418 374.292C594.203 413.588 480.392 340.666 480.392 340.666V307.712C490.388 316.37 540.962 330.347 580.218 335.667C584.644 336.271 589.073 337.244 593.466 338.468L591.94 336.371L542.454 268.164L538.295 262.426L559.593 197.238C559.593 197.238 579.128 208.062 588.87 241.787C588.87 241.787 616.825 306.37 640.117 334.341C663.409 362.313 659.418 374.292 659.418 374.292Z" fill="white"/>
<path d="M453.527 273.537C454.379 270.979 455.464 269.301 456.385 271.273C456.639 266.183 457.144 262.5 457.769 261.426C459.535 258.397 460.346 258.437 461.792 261.675C461.943 259.616 462.657 258.204 463.426 258.054C464.716 257.806 467.004 264.173 468.252 269.416C469.15 273.187 470.171 283.311 470.677 288.717L473.201 293.648C472.954 285.964 475.653 277.727 477.235 278.406C478.983 279.156 478.233 283.401 477.983 292.514C477.857 297.129 477.858 300.55 477.892 302.813L480.396 307.706C480.396 307.706 483.057 331.013 480.396 340.668C480.396 340.668 474.063 337.78 467.641 329.174L467.642 329.18C467.642 329.18 458.767 318.111 454.775 304.128C450.782 290.143 452.279 277.282 453.527 273.537Z" fill="#FF9E81"/>
<path d="M545.323 601.078C543.259 600.206 541.297 599.518 539.52 599.049C539.52 599.049 412.26 567.587 328.399 539.095C261.037 516.244 244.47 493.154 242.272 477.552C247.79 484.549 261.758 496.511 297.192 513.342C357.56 542.033 524.21 583.411 545.323 601.078Z" fill="url(#paint2_linear_0_175)"/>
<path d="M590.167 539.1C512.414 565.506 397.327 594.478 380.975 598.554C379.695 598.881 379.018 599.045 379.018 599.045C367.791 602.029 349.832 613.775 338.349 620.511C326.866 627.245 323.629 629.506 320.392 633.003C317.13 636.498 313.893 635.008 313.893 635.008C309.14 637.5 306.904 635.986 306.904 635.986C303.153 637.735 300.172 635.986 300.172 635.986C294.932 638.247 291.181 636.498 292.184 633.003C293.186 629.506 297.168 616.526 310.142 608.017C323.117 599.535 326.61 586.063 337.604 575.575C348.575 565.087 354.072 563.573 375.035 564.575C377.364 564.69 379.787 564.645 382.302 564.482C402.311 563.013 427.701 552.315 457.562 534.111C491.172 513.627 548.03 468.272 607.123 455.22C662.398 443.007 676.194 467.303 676.194 467.303C679.524 481.614 674.021 510.644 590.167 539.1Z" fill="url(#paint3_linear_0_175)"/>
<path d="M626.543 428.734C595.484 420.598 563.149 419.618 553.63 421.673C549.845 412.737 540.703 400.814 540.703 400.814C540.703 400.814 504.595 424.239 449.691 423.74C394.786 423.24 376.618 407.948 376.618 407.948C374.367 411.427 368.134 422.241 368.134 422.241C368.134 422.241 341.4 419.793 292.018 430.232C244.768 440.22 242.719 467.523 242.719 467.523C242.719 467.523 273.998 447.546 332.563 463.527C389.801 479.148 419.074 524.002 458.271 526.646V526.788C458.73 526.781 459.181 526.736 459.637 526.718C460.094 526.736 460.546 526.781 461.004 526.788V526.646C500.201 524.002 529.473 479.148 586.713 463.527C645.278 447.546 676.555 467.523 676.555 467.523C676.555 467.523 678.026 442.219 626.543 428.734Z" fill="url(#paint4_linear_0_175)"/>
<path d="M380.975 598.555C379.695 598.881 379.018 599.045 379.018 599.045C367.791 602.028 349.832 613.774 338.349 620.51C326.866 627.245 323.629 629.506 320.39 633.003C317.13 636.499 313.893 635.007 313.893 635.007C309.14 637.501 306.904 635.986 306.904 635.986C303.153 637.734 300.172 635.986 300.172 635.986C294.932 638.246 291.181 636.499 292.184 633.003C293.186 629.506 297.168 616.525 310.142 608.018C323.117 599.536 326.61 586.063 337.604 575.575C348.575 565.088 354.072 563.573 375.035 564.575C377.364 564.691 379.787 564.645 382.302 564.481C378.553 577.09 379.602 590.259 380.975 598.555Z" fill="#FF9E81"/>
<path d="M618.396 635.986C618.396 635.986 615.392 637.734 611.665 635.986C611.665 635.986 609.406 637.5 604.677 635.007C604.677 635.007 601.415 636.498 598.178 633.003C594.941 629.506 591.702 627.246 580.219 620.511C570.553 614.847 556.299 605.617 545.328 601.071C546.726 583.966 542.789 570.89 540.343 564.645C541.437 564.645 542.486 564.621 543.534 564.575C564.497 563.573 569.972 565.087 580.964 575.575C591.936 586.063 595.43 599.535 608.403 608.018C621.401 616.525 625.384 629.506 626.385 633.003C627.387 636.498 623.636 638.246 618.396 635.986Z" fill="#FF9E81"/>
<path d="M586.816 451.81C565.998 458.621 541.933 474.558 518.22 491.539C511.97 491.838 504.648 491.397 497.699 489.066C491.997 487.153 488.663 487.495 489.018 484.73C492.144 460.463 531.782 436.931 531.782 436.931C505.768 444.644 489.351 467.404 482.822 480.257C477.916 486.235 469.868 493.592 460.373 492.828C444.604 491.554 439.373 477.878 434.273 470.548C426.077 458.767 408.97 443.649 386.305 436.931C386.305 436.931 421.585 456.869 433.821 482.854C437.194 490.02 437.474 496.738 425.833 492.828C407.148 486.549 374.751 462.325 364.027 457.425C334.934 444.136 311.973 448.109 306.881 449.254C309.863 448.86 320.278 449.234 351.809 461.741C378.118 472.176 410.641 496.101 429.744 511.187L445.502 524.073C445.735 524.273 445.893 524.409 445.893 524.409C445.893 524.409 445.807 524.317 445.677 524.18C446.852 524.874 455.022 529.173 471.004 525.406C465.709 528.999 460.583 532.322 455.683 535.251C417.177 558.262 382.302 564.481 382.302 564.481C382.302 564.481 385.588 571.044 431.582 554.863C477.577 538.683 521.775 493.02 564.538 469.65C607.297 446.279 636.044 449.156 648.622 453.471C648.622 453.471 627.061 438.644 586.816 451.81Z" fill="url(#paint5_linear_0_175)"/>
<path d="M381.924 266.872L331.382 336.522C321.422 337.882 314.446 336.136 314.446 336.136C337.503 318.066 368.341 247.728 373.775 234.992C374.345 233.718 374.63 233.011 374.63 233.011C377.664 238.482 379.728 245.009 380.85 252.056C381.623 256.804 381.975 261.805 381.924 266.872Z" fill="#EDEDED"/>
<path d="M609.916 336.137C609.916 336.137 602.454 337.999 591.939 336.372L542.453 268.165C542.153 255.128 544.466 242.492 549.715 233.013C549.715 233.013 584.528 316.237 609.916 336.137Z" fill="#EDEDED"/>
<path d="M380.965 268.175C380.965 268.175 377.882 224.801 361.432 205.202C361.432 205.202 388.92 223.823 380.965 268.175Z" fill="#EDEDED"/>
<path d="M329.968 338.468C329.968 338.468 288.566 342.369 280.661 358.189C280.661 358.189 282.458 346.972 301.324 338.468C320.188 329.964 333.157 334.073 333.157 334.073L329.968 338.468Z" fill="#EDEDED"/>
<path d="M593.56 338.468C593.56 338.468 634.96 342.369 642.867 358.189C642.867 358.189 641.069 346.972 622.205 338.468C603.339 329.964 590.37 334.073 590.37 334.073L593.56 338.468Z" fill="#EDEDED"/>
<path d="M436.57 156.315C436.57 156.315 445.562 163.706 460.575 163.089C480.649 162.264 484.58 153.826 484.58 153.826L480.678 139.752L441.864 137.962L436.57 156.315Z" fill="#FF9E81"/>
<path fill-rule="evenodd" clip-rule="evenodd" d="M623.105 131.592C621.093 110.618 598.135 93.6379 598.135 93.6379C623.105 95.6342 633.417 126.591 633.417 126.591L635.749 122.934C635.749 109.611 620.438 86.6409 588.158 81.9772C555.877 77.3289 546.57 75.3326 531.597 68.3356C523.954 64.7645 520.732 58.5931 516.798 51.0591C513.024 43.8312 508.595 35.3492 498.98 26.706C479.345 9.07173 466.047 11.068 466.047 11.068C463.882 10.9674 462.055 11.6216 460.714 12.343C459.354 11.6216 457.543 10.9674 455.381 11.068C455.381 11.068 442.067 9.07173 422.43 26.706C412.826 35.3465 408.402 43.8259 404.631 51.0523C400.698 58.5894 397.477 64.7635 389.832 68.3356C374.855 75.3326 365.532 77.3289 333.252 81.9772C300.989 86.6409 285.679 109.611 285.679 122.934L288.01 126.591C288.01 126.591 298.323 95.6342 323.275 93.6379C323.275 93.6379 300.319 110.618 298.324 131.592C296.36 152.18 317.188 161.878 317.942 162.214L317.959 162.231C317.959 162.231 317.624 154.227 321.28 148.237C321.28 148.237 319.351 156.223 324.801 165.888C330.267 175.537 345.897 180.536 352.889 181.863C352.889 181.863 355.555 172.551 357.215 168.221C357.215 168.221 357.031 177.868 359.782 183.54L366.857 185.201C366.857 185.201 367.529 178.204 370.53 173.54C370.53 173.54 371.217 180.554 372.86 185.201C372.86 185.201 383.157 190.856 399.071 193.037C403.357 193.628 405.204 191.355 407.387 188.67C409.542 186.018 412.025 182.963 417.508 181.863C430.312 179.301 423.262 145.43 417.5 117.748C416.259 111.785 415.077 106.11 414.167 101.096C415.119 103.186 415.789 104.308 415.789 104.308C415.789 104.308 421.271 99.1299 421.937 89.641C422.601 80.1521 419.274 73.8261 419.274 73.8261C419.274 73.8261 423.268 72.1608 429.256 67.6664C435.247 63.1721 442.566 53.1829 442.566 53.1829C438.407 62.5056 427.759 72.9934 427.759 72.9934L430.588 73.8261C430.588 73.8261 440.403 69.3318 449.554 53.5154C453.603 46.5199 456.084 41.1609 457.596 37.3497C458.896 41.1197 461.514 47.3968 466.692 56.3444C475.841 72.1592 485.658 76.6536 485.658 76.6536L488.486 75.8224C488.486 75.8224 477.838 65.3346 473.679 56.0104C473.679 56.0104 480.999 65.9995 486.989 70.4939C492.979 74.9897 496.972 76.6536 496.972 76.6536C496.972 76.6536 493.645 82.9795 494.311 92.47C494.878 100.565 499.563 106.663 500.927 108.279C500.936 108.315 500.945 108.35 500.955 108.386C501.936 108.581 500.8 130.112 499.675 151.421C498.572 172.324 497.48 193.013 498.41 193.137C527.168 196.929 548.567 185.201 548.567 185.201C550.193 180.554 550.897 173.54 550.897 173.54C553.883 178.204 554.552 185.201 554.552 185.201L561.63 183.54C564.38 177.868 564.194 168.221 564.194 168.221C565.872 172.551 568.521 181.863 568.521 181.863C575.514 180.536 591.159 175.537 596.609 165.888C602.06 156.223 600.132 148.237 600.132 148.237C601.406 150.3 602.194 152.617 602.679 154.747C603.619 158.807 603.468 162.231 603.468 162.231C603.468 162.231 625.099 152.566 623.105 131.592Z" fill="url(#paint6_linear_0_175)"/>
<path d="M508.066 81.9467C508.066 111.562 479.993 148.85 460.427 148.85C439.67 148.85 412.363 111.562 412.363 81.9467C412.363 52.3301 433.788 28.321 460.214 28.321C486.641 28.321 508.066 52.3301 508.066 81.9467Z" fill="#FFBC9F"/>
<path d="M426.758 87.777C426.758 87.777 429.366 91.6903 438.711 92.343C448.057 92.9958 451.643 90.06 451.643 90.06C451.643 90.06 435.234 89.5171 426.758 87.777" fill="#2B2A2A"/>
<path d="M447.298 79.8731C447.298 79.8731 445.265 79.6428 439.694 79.2829C434.125 78.9229 428.913 80.1811 428.913 80.1811C428.913 80.1811 434.125 75.4168 440.503 75.4168C446.882 75.4168 447.298 79.8731 447.298 79.8731Z" fill="#2B2A2A"/>
<path d="M492.7 87.777C492.7 87.777 490.092 91.6903 480.746 92.3431C471.401 92.9958 467.815 90.06 467.815 90.06C467.815 90.06 484.222 89.5171 492.7 87.777Z" fill="#2B2A2A"/>
<path d="M472.16 79.8728C472.16 79.8728 474.195 79.6426 479.764 79.2826C485.335 78.9227 490.544 80.1809 490.544 80.1809C490.544 80.1809 485.335 75.4166 478.956 75.4166C472.576 75.4166 472.16 79.8728 472.16 79.8728Z" fill="#2B2A2A"/>
<path d="M454.522 113.289C454.522 113.289 457.07 115.138 460.108 115.377C463.145 115.617 465.781 113.579 465.781 113.579L460.332 112.501L454.522 113.289Z" fill="#FF9E81"/>
<path d="M448.259 122.992C448.259 122.992 454.041 124.855 459.759 124.987C465.476 125.121 472.159 122.925 472.159 122.925C472.159 122.925 464.878 122.26 462.95 122.393C461.024 122.526 460.025 123.691 460.025 123.691C460.025 123.691 459.228 122.376 456.768 122.386C454.308 122.393 448.259 122.992 448.259 122.992Z" fill="#EE876D"/>
<path d="M450.623 126.817C450.623 126.817 454.937 130.209 460.558 130.109C466.179 130.009 469.669 126.817 469.669 126.817C469.669 126.817 466.802 133.501 460.558 133.401C454.312 133.301 450.623 126.817 450.623 126.817Z" fill="#FF9E81"/>
<path d="M478.11 106.536C480.371 105.55 481.398 109.421 481.398 109.421C481.398 109.421 482.605 105.615 484.815 106.722C487.025 107.831 482.692 115.564 481.255 115.525C479.818 115.486 475.852 107.521 478.11 106.536Z" fill="#602B50"/>
<path d="M434.672 106.536C436.933 105.55 437.961 109.421 437.961 109.421C437.961 109.421 439.167 105.615 441.377 106.722C443.588 107.831 439.254 115.564 437.817 115.525C436.381 115.486 432.414 107.521 434.672 106.536Z" fill="#602B50"/>
<path fill-rule="evenodd" clip-rule="evenodd" d="M621.962 131.592C619.95 110.618 596.992 93.6381 596.992 93.6381C621.962 95.6344 632.274 126.592 632.274 126.592L634.606 122.935C634.606 109.612 619.295 86.6411 587.015 81.9775C554.733 77.3291 545.427 75.3328 530.454 68.3358C522.811 64.7648 519.589 58.5934 515.655 51.0593C511.881 43.8315 507.452 35.3495 497.837 26.7062C478.201 9.07196 464.903 11.0683 464.903 11.0683C462.739 10.9676 460.912 11.6219 459.57 12.3432C458.211 11.6219 456.4 10.9676 454.237 11.0683C454.237 11.0683 440.924 9.07196 421.287 26.7062C411.683 35.3467 407.259 43.8261 403.488 51.0525C399.555 58.5896 396.333 64.7637 388.688 68.3358C373.712 75.3328 364.389 77.3291 332.109 81.9775C299.846 86.6411 284.536 109.612 284.536 122.935L286.866 126.592C286.866 126.592 297.18 95.6344 322.132 93.6381C322.132 93.6381 299.175 110.618 297.18 131.592C295.217 152.181 316.045 161.878 316.799 162.214L316.816 162.231C316.816 162.231 316.481 154.227 320.137 148.237C320.137 148.237 318.207 156.224 323.658 165.888C329.123 175.537 344.753 180.536 351.746 181.863C351.746 181.863 354.412 172.551 356.072 168.221C356.072 168.221 355.887 177.869 358.638 183.54L365.713 185.201C365.713 185.201 366.386 178.204 369.387 173.541C369.387 173.541 370.074 180.554 371.717 185.201C371.717 185.201 382.014 190.856 397.928 193.037C402.298 193.639 403.831 192.144 405.778 190.246C407.626 188.445 409.847 186.28 415.221 185.201C428.113 182.622 421.355 146.908 415.91 118.137C414.695 111.717 413.545 105.642 412.694 100.359C413.817 102.921 414.645 104.308 414.645 104.308C414.645 104.308 420.127 99.13 420.793 89.6411C421.458 80.1522 418.131 73.8262 418.131 73.8262C418.131 73.8262 422.124 72.1609 428.112 67.6665C434.104 63.1722 441.423 53.183 441.423 53.183C437.263 62.5057 426.615 72.9936 426.615 72.9936L429.444 73.8262C429.444 73.8262 439.26 69.3319 448.411 53.5155C452.459 46.52 454.94 41.161 456.452 37.3498C457.752 41.1198 460.371 47.3969 465.548 56.3445C474.698 72.1594 484.515 76.6537 484.515 76.6537L487.342 75.8225C487.342 75.8225 476.694 65.3347 472.535 56.0105C472.535 56.0105 479.855 65.9996 485.845 70.494C491.835 74.9899 495.828 76.6537 495.828 76.6537C495.828 76.6537 492.501 82.9797 493.167 92.4701C493.734 100.567 498.421 106.665 499.784 108.28C499.793 108.315 499.802 108.351 499.811 108.386C500.793 108.581 499.657 130.112 498.532 151.421C497.429 172.324 496.337 193.013 497.267 193.138C526.025 196.929 547.424 185.201 547.424 185.201C549.05 180.554 549.754 173.541 549.754 173.541C552.74 178.204 553.409 185.201 553.409 185.201L560.487 183.54C563.237 177.869 563.051 168.221 563.051 168.221C564.729 172.551 567.378 181.863 567.378 181.863C574.37 180.536 590.016 175.537 595.466 165.888C600.917 156.224 598.988 148.237 598.988 148.237C600.263 150.3 601.051 152.617 601.535 154.747C602.476 158.807 602.325 162.231 602.325 162.231C602.325 162.231 623.956 152.566 621.962 131.592Z" fill="url(#paint7_linear_0_175)"/>
<path d="M441.713 140.249L435.998 157.978L426.853 187.717C426.853 187.717 410.278 194.746 398.517 193.135C382.604 190.954 372.307 185.299 372.307 185.299C370.664 180.652 369.976 173.638 369.976 173.638C366.975 178.302 366.303 185.299 366.303 185.299L359.228 183.638C356.477 177.966 356.661 168.319 356.661 168.319C355.001 172.648 352.336 181.96 352.336 181.96C345.343 180.635 329.713 175.635 324.247 165.987C318.797 156.321 320.725 148.334 320.725 148.334C317.07 154.325 317.405 162.328 317.405 162.328L317.389 162.312C316.986 161.657 307.512 146.003 317.405 129.928C327.5 113.536 357.248 118.803 357.248 118.803C357.248 118.803 340.915 122.277 336.605 130.365L339.004 133.217C339.004 133.217 347.154 124.156 370.144 122.193C393.134 120.246 411.817 108.964 415.993 102.504C427.054 131.507 441.713 140.249 441.713 140.249Z" fill="url(#paint8_linear_0_175)"/>
<path d="M602.126 154.845C601.641 152.715 600.851 150.398 599.577 148.335C599.577 148.335 601.507 156.321 596.056 165.987C590.605 175.635 574.961 180.635 567.968 181.961C567.968 181.961 565.319 172.649 563.641 168.319C563.641 168.319 563.825 177.967 561.076 183.638L553.999 185.299C553.999 185.299 553.329 178.302 550.343 173.638C550.343 173.638 549.639 180.652 548.012 185.299C548.012 185.299 528.59 196.295 494.868 193.436L479.436 139.105C479.436 139.105 489.724 134.158 500.272 108.2C504.429 114.66 522.356 124.039 545.363 125.985C568.354 127.949 576.503 137.01 576.503 137.01L578.902 134.158C574.592 126.069 558.259 122.596 558.259 122.596C558.259 122.596 588.006 117.327 598.102 133.72C602.831 141.388 603.132 148.955 602.126 154.845Z" fill="url(#paint9_linear_0_175)"/>
<defs>
<linearGradient id="paint0_linear_0_175" x1="45.9332" y1="565.169" x2="178.244" y2="565.169" gradientUnits="userSpaceOnUse">
<stop stop-color="#001226"/>
<stop offset="0.665961" stop-color="#6D2E55"/>
<stop offset="1" stop-color="#6D2E55"/>
</linearGradient>
<linearGradient id="paint1_linear_0_175" x1="434.276" y1="636.997" x2="434.276" y2="451.808" gradientUnits="userSpaceOnUse">
<stop stop-color="#001226"/>
<stop offset="0.665961" stop-color="#6D2E55"/>
<stop offset="1" stop-color="#6D2E55"/>
</linearGradient>
<linearGradient id="paint2_linear_0_175" x1="393.8" y1="601.078" x2="393.8" y2="477.553" gradientUnits="userSpaceOnUse">
<stop stop-color="#6D2E55"/>
<stop offset="0.348958" stop-color="#260419"/>
<stop offset="0.536458" stop-color="#001226"/>
</linearGradient>
<linearGradient id="paint3_linear_0_175" x1="484.461" y1="637" x2="484.461" y2="451.787" gradientUnits="userSpaceOnUse">
<stop stop-color="#001226"/>
<stop offset="0.665961" stop-color="#6D2E55"/>
<stop offset="1" stop-color="#6D2E55"/>
</linearGradient>
<linearGradient id="paint4_linear_0_175" x1="459.643" y1="526.788" x2="459.643" y2="400.813" gradientUnits="userSpaceOnUse">
<stop stop-color="#001226"/>
<stop offset="0.665961" stop-color="#6D2E55"/>
<stop offset="1" stop-color="#6D2E55"/>
</linearGradient>
<linearGradient id="paint5_linear_0_175" x1="477.754" y1="565.797" x2="477.754" y2="436.933" gradientUnits="userSpaceOnUse">
<stop stop-color="#6D2E55"/>
<stop offset="0.348958" stop-color="#260419"/>
<stop offset="0.536458" stop-color="#001226"/>
</linearGradient>
<linearGradient id="paint6_linear_0_175" x1="465.518" y1="-43.7385" x2="465.518" y2="80.9352" gradientUnits="userSpaceOnUse">
<stop stop-color="#6D2E55"/>
<stop offset="0.334039" stop-color="#6D2E55"/>
<stop offset="1" stop-color="#001226"/>
</linearGradient>
<linearGradient id="paint7_linear_0_175" x1="464.375" y1="-43.7383" x2="464.375" y2="80.9354" gradientUnits="userSpaceOnUse">
<stop stop-color="#6D2E55"/>
<stop offset="0.334039" stop-color="#6D2E55"/>
<stop offset="1" stop-color="#001226"/>
</linearGradient>
<linearGradient id="paint8_linear_0_175" x1="454.911" y1="148.473" x2="312.917" y2="148.473" gradientUnits="userSpaceOnUse">
<stop stop-color="#6D2E55"/>
<stop offset="0.334039" stop-color="#6D2E55"/>
<stop offset="1" stop-color="#001226"/>
</linearGradient>
<linearGradient id="paint9_linear_0_175" x1="602.595" y1="150.798" x2="460.6" y2="150.798" gradientUnits="userSpaceOnUse">
<stop stop-color="#6D2E55"/>
<stop offset="0.334039" stop-color="#6D2E55"/>
<stop offset="1" stop-color="#001226"/>
</linearGradient>
<clipPath id="clip0_0_175">
<rect width="937" height="605" fill="white"/>
</clipPath>
</defs>
</svg>
