<svg width="113" height="60" viewBox="0 0 113 60" fill="none" xmlns="http://www.w3.org/2000/svg">
<path d="M0 8C0 3.58172 3.58172 0 8 0H113V60H8C3.58173 60 0 56.4183 0 52V8Z" fill="#F4E9FF"/>
<path d="M22.28 42.4C23.16 42.2933 23.88 41.96 24.44 41.4C25 40.84 25.28 39.8533 25.28 38.44V36.2C23.9467 36.8667 22.5467 37.2 21.08 37.2C19.2667 37.2 17.6667 36.8533 16.28 36.16C14.8933 35.44 13.8133 34.4267 13.04 33.12C12.2933 31.7867 11.92 30.24 11.92 28.48V17H16.32V28.08C16.32 29.7333 16.72 30.9467 17.52 31.72C18.32 32.4933 19.5067 32.88 21.08 32.88C21.96 32.88 22.68 32.7867 23.24 32.6C23.8267 32.4133 24.2267 32.2267 24.44 32.04C24.68 31.8533 24.96 31.6 25.28 31.28V17H29.68V38.76C29.68 40.8667 29.2267 42.5067 28.32 43.68C27.4133 44.8533 25.8667 45.5467 23.68 45.76L22.28 42.4ZM49.915 37.64C49.915 39.88 49.3017 41.7333 48.075 43.2C46.8483 44.6667 44.995 45.4 42.515 45.4C40.035 45.4 38.155 44.6667 36.875 43.2C35.6217 41.7067 34.995 39.8533 34.995 37.64V32.36C34.995 29.8267 35.635 27.8933 36.915 26.56C38.2217 25.2 40.0883 24.52 42.515 24.52C44.835 24.52 46.6483 25.2267 47.955 26.64C49.2617 28.0267 49.915 29.9333 49.915 32.36V37.64ZM45.555 32.36C45.555 30.9467 45.2617 30.0267 44.675 29.6C44.0883 29.1733 43.3683 28.96 42.515 28.96C40.435 28.96 39.395 30.0933 39.395 32.36V38.04C39.395 39.1067 39.6883 39.88 40.275 40.36C40.8617 40.84 41.6083 41.08 42.515 41.08C43.395 41.08 44.115 40.8267 44.675 40.32C45.2617 39.8133 45.555 39.0533 45.555 38.04V32.36ZM61.5056 49.96C62.4123 49.96 63.119 49.6933 63.6256 49.16C64.159 48.6533 64.4256 47.88 64.4256 46.84V44.68C64.2123 44.84 63.8256 45.0133 63.2656 45.2C62.7323 45.3867 62.039 45.48 61.1856 45.48C58.839 45.48 57.0123 44.84 55.7056 43.56C54.399 42.28 53.7456 40.4133 53.7456 37.96V32C53.7456 29.6533 54.4256 27.84 55.7856 26.56C57.1723 25.2533 59.0256 24.6 61.3456 24.6C62.0923 24.6 62.759 24.6933 63.3456 24.88C63.9323 25.04 64.3056 25.2133 64.4656 25.4L65.3056 24.96H68.8256V47.56C68.8256 51.4533 66.7323 53.4 62.5456 53.4L61.5056 49.96ZM64.4256 32.4C64.4256 31.3333 64.1856 30.4933 63.7056 29.88C63.2256 29.2667 62.3856 28.96 61.1856 28.96C60.0923 28.96 59.3056 29.28 58.8256 29.92C58.3723 30.5333 58.1456 31.2933 58.1456 32.2V37.36C58.1456 39.9467 59.159 41.24 61.1856 41.24C62.4923 41.24 63.359 40.8133 63.7856 39.96C64.2123 39.1067 64.4256 37.7067 64.4256 35.76V32.4ZM76.4966 21.32C75.8566 21.32 75.2966 21.08 74.8166 20.6C74.3366 20.12 74.0966 19.56 74.0966 18.92C74.0966 18.3067 74.3366 17.7733 74.8166 17.32C75.2966 16.84 75.8566 16.6 76.4966 16.6C77.1099 16.6 77.6432 16.84 78.0966 17.32C78.5766 17.7733 78.8166 18.3067 78.8166 18.92C78.8166 19.56 78.5766 20.12 78.0966 20.6C77.6432 21.08 77.1099 21.32 76.4966 21.32ZM74.1766 24.96H78.5766V45H74.1766V24.96ZM87.8713 39.48C87.8713 39.96 88.1113 40.4133 88.5913 40.84C89.0979 41.2667 89.8579 41.48 90.8713 41.48C91.7513 41.48 92.4313 41.2667 92.9113 40.84C93.3913 40.3867 93.6313 39.8667 93.6313 39.28C93.6313 38.4533 93.3246 37.84 92.7113 37.44C92.1246 37.04 91.1646 36.6 89.8313 36.12C88.6846 35.7467 87.7379 35.3733 86.9913 35C86.2446 34.6267 85.5779 34.0667 84.9913 33.32C84.4046 32.5733 84.0579 31.6 83.9513 30.4C83.8713 29.4933 84.0446 28.5867 84.4713 27.68C84.9246 26.7467 85.6713 25.9867 86.7113 25.4C87.7779 24.7867 89.1379 24.48 90.7913 24.48C91.6446 24.48 92.3913 24.5733 93.0313 24.76C93.6979 24.92 94.2179 25.0933 94.5913 25.28C94.9646 25.4667 95.1913 25.5867 95.2713 25.64L93.9913 29.72C93.9379 29.6667 93.7913 29.5733 93.5513 29.44C93.3379 29.28 92.9913 29.1333 92.5113 29C92.0313 28.8667 91.4579 28.8 90.7913 28.8C89.3513 28.8 88.6313 29.2 88.6313 30C88.6313 30.16 88.6579 30.32 88.7113 30.48C88.7913 30.8533 89.0713 31.1733 89.5513 31.44C90.0313 31.68 90.7379 31.9733 91.6713 32.32C92.9779 32.8 94.0713 33.28 94.9513 33.76C95.8579 34.2133 96.6313 34.9067 97.2713 35.84C97.9379 36.7467 98.2713 37.92 98.2713 39.36C98.2713 40.4533 98.0046 41.48 97.4713 42.44C96.9379 43.3733 96.1113 44.1333 94.9913 44.72C93.8979 45.3067 92.5246 45.6 90.8713 45.6C89.3513 45.6 88.0313 45.3467 86.9113 44.84C85.8179 44.3067 84.9779 43.6133 84.3913 42.76C83.8313 41.9067 83.5246 40.96 83.4713 39.92L87.8713 39.48Z" fill="#604F7C"/>
</svg>
